<svg width="15" height="16" viewBox="0 0 15 16" fill="none" xmlns="http://www.w3.org/2000/svg">
<path d="M7.5 5.79688C6.06445 5.79688 4.92188 6.96875 4.92188 8.375C4.92188 9.81055 6.06445 10.9531 7.5 10.9531C8.90625 10.9531 10.0781 9.81055 10.0781 8.375C10.0781 6.96875 8.90625 5.79688 7.5 5.79688ZM7.5 9.54688C6.82617 9.54688 6.32812 9.04883 6.32812 8.375C6.32812 7.73047 6.82617 7.20312 7.5 7.20312C8.14453 7.20312 8.67188 7.73047 8.67188 8.375C8.67188 9.04883 8.14453 9.54688 7.5 9.54688ZM14.5312 7.67188H13.0664C12.7441 5.15234 10.7227 3.13086 8.20312 2.80859V1.34375C8.20312 1.10938 7.96875 0.875 7.73438 0.875H7.26562C7.00195 0.875 6.79688 1.10938 6.79688 1.34375V2.80859C4.24805 3.13086 2.22656 5.15234 1.9043 7.67188H0.46875C0.205078 7.67188 0 7.90625 0 8.14062V8.60938C0 8.87305 0.205078 9.07812 0.46875 9.07812H1.9043C2.22656 11.627 4.24805 13.6484 6.79688 13.9707V15.4062C6.79688 15.6699 7.00195 15.875 7.26562 15.875H7.73438C7.96875 15.875 8.20312 15.6699 8.20312 15.4062V13.9707C10.7227 13.6484 12.7441 11.627 13.0664 9.07812H14.5312C14.7656 9.07812 15 8.87305 15 8.60938V8.14062C15 7.90625 14.7656 7.67188 14.5312 7.67188ZM7.5 12.5938C5.15625 12.5938 3.28125 10.7188 3.28125 8.375C3.28125 6.06055 5.15625 4.15625 7.5 4.15625C9.81445 4.15625 11.7188 6.06055 11.7188 8.375C11.7188 10.7188 9.81445 12.5938 7.5 12.5938Z" fill="#22262A"/>
</svg>
